<svg xmlns="http://www.w3.org/2000/svg" xmlns:xlink="http://www.w3.org/1999/xlink" xmlns:lucid="lucid" width="1510.2" height="762.48"><g transform="translate(-49.51700770661705 -373.9297103374967)" lucid:page-tab-id="m-5o7ONTd-nK"><path d="M0 0h1998.65v3216.6H0z" fill="#fff"/><path d="M695.17 401.93c0-4.42 3.58-8 8-8h470.62c4.4 0 8 3.58 8 8v609.65c0 4.42-3.6 8-8 8H703.16c-4.42 0-8-3.58-8-8z" fill-opacity="0"/><path d="M699.24 395.1l.82-.54 3.1-.63h5.07m5.06 0h10.1m5.07 0h10.12m5.05 0h10.12m5.06 0h10.13m5.06 0h10.12m5.06 0h10.12m5.06 0h10.12m5.06 0h10.12m5.06 0h10.12m5.06 0h10.12m5.06 0h10.12m5.06 0h10.13m5.07 0h10.12m5.05 0h10.12m5.06 0h10.12m5.06 0h10.13m5.06 0h10.1m5.07 0h10.12m5.05 0h10.12m5.06 0h10.13m5.06 0h10.12m5.06 0h10.12m5.06 0h10.12m5.06 0h10.12m5.06 0h10.12m5.06 0h10.12m5.06 0h10.12m5.06 0h10.13m5.07 0h10.12m5.05 0h10.12m5.06 0h5.06l3.1.63.82.55m2.9 2.9l.54.82.63 3.1v4.97m0 4.94v9.92m0 4.95v9.93m0 4.95v9.92m0 4.95v9.9m0 4.97v9.9m0 4.97v9.9m0 4.96v9.9m0 4.97v9.9m0 4.97v9.9m0 4.97v9.9m0 4.97v9.9m0 4.97v9.92m0 4.96v9.9m0 4.97v9.9m0 4.97v9.9m0 4.97v9.9m0 4.96v9.9m0 4.97v9.9m0 4.97v9.9m0 4.96v9.92m0 4.95v9.92m0 4.95v9.92m0 4.95v9.92m0 4.94v9.92m0 4.95v9.93m0 4.95v9.92m0 4.95v9.92m0 4.95v9.9m0 4.97v9.9m0 4.96v9.9m0 4.97v9.9m0 4.97v9.9m0 4.97v9.9m0 4.97v9.9m0 4.97v9.92m0 4.96v9.9m0 4.97v9.9m0 4.97v9.9m0 4.97v9.9m0 4.96v9.9m0 4.97v4.95l-.64 3.12-.55.8m-2.88 2.9l-.82.55-3.1.63h-5.07m-5.06 0h-10.12m-5.06 0h-10.13m-5.06 0h-10.12m-5.06 0H1108m-5.06 0h-10.12m-5.06 0h-10.12m-5.06 0h-10.12m-5.06 0h-10.12m-5.06 0h-10.12m-5.06 0h-10.12m-5.06 0h-10.13m-5.06 0h-10.12m-5.06 0h-10.13m-5.06 0h-10.1m-5.07 0H941m-5.05 0h-10.12m-5.06 0h-10.12m-5.06 0h-10.13m-5.06 0H880.3m-5.06 0H865.1m-5.06 0h-10.12m-5.06 0h-10.12m-5.06 0h-10.12m-5.06 0h-10.12m-5.06 0H789.2m-5.06 0h-10.12m-5.06 0h-10.13m-5.06 0h-10.12m-5.06 0h-10.13m-5.06 0h-10.1m-5.07 0h-5.06l-3.1-.63-.83-.55m-2.9-2.9l-.54-.8-.63-3.12v-4.95m0-4.96v-9.9m0-4.97v-9.9m0-4.97v-9.9m0-4.97v-9.9m0-4.97v-9.92m0-4.96v-9.9m0-4.97v-9.9m0-4.97v-9.9m0-4.97v-9.9m0-4.96v-9.9m0-4.97v-9.9m0-4.97v-9.9m0-4.97v-9.9m0-4.96v-9.92m0-4.95v-9.92m0-4.95v-9.92m0-4.94v-9.92m0-4.95v-9.93m0-4.95v-9.92m0-4.95v-9.92m0-4.95v-9.92m0-4.95v-9.9m0-4.96v-9.9m0-4.97v-9.9m0-4.97v-9.9m0-4.97v-9.9m0-4.97v-9.9m0-4.97v-9.92m0-4.96v-9.9m0-4.97v-9.9m0-4.97v-9.9m0-4.97v-9.9m0-4.96v-9.9m0-4.97v-9.9m0-4.97v-9.9m0-4.97v-9.9m0-4.97v-9.9m0-4.96v-9.92m0-4.95v-9.92m0-4.94v-9.92m0-4.95v-4.97l.63-3.1.55-.83" stroke="#0c7cba" fill="none"/><path d="M741.5 448.27c0-4.4 3.6-8 8-8h262.08c4.42 0 8 3.6 8 8v192.56c0 4.4-3.58 8-8 8H749.5c-4.4 0-8-3.6-8-8z" stroke="#fcc438" fill="#ffeca9" fill-opacity=".31"/><path d="M695.17 401.93c0-4.42 3.58-8 8-8H918.9c4.4 0 8 3.58 8 8v40.64c0 4.42-3.6 8-8 8H703.16c-4.42 0-8-3.58-8-8z" stroke="#000" stroke-opacity="0" stroke-width="2" fill="#fff" fill-opacity="0"/><use xlink:href="#a" transform="matrix(1,0,0,1,700.1700770661824,398.9297103374967) translate(15.10300433804785 26.938842339150206)"/><use xlink:href="#b" transform="matrix(1,0,0,1,700.1700770661824,398.9297103374967) translate(55.10389159145414 26.938842339150206)"/><use xlink:href="#c" transform="matrix(1,0,0,1,700.1700770661824,398.9297103374967) translate(138.8103790604095 26.938842339150206)"/><path d="M787.36 860.92c0-4.42 3.58-8 8-8h146.2c4.42 0 8 3.58 8 8v107.86c-27.08-19.35-43.95-19.35-54.17-19.35-16.23 0-37.8 19.35-54.03 19.35-10.05 0-27.08 0-54-19.35z" stroke="#000" stroke-opacity="0" stroke-width="2" fill="#de5f85"/><use xlink:href="#d" transform="matrix(1,0,0,1,792.3594206750168,857.9205249357663) translate(21.98064303008827 48.032592339150206)"/><use xlink:href="#e" transform="matrix(1,0,0,1,792.3594206750168,857.9205249357663) translate(90.96840602782781 48.032592339150206)"/><path d="M556.14 448.27c0-4.4 3.58-8 8-8H664c4.42 0 8 3.6 8 8v30.35c0 4.42-3.58 8-8 8h-99.86c-4.42 0-8-3.58-8-8z" stroke="#000" stroke-opacity="0" stroke-width="2" fill="#fff" fill-opacity="0"/><use xlink:href="#f" transform="matrix(1,0,0,1,561.1360616529365,445.27438214202357) translate(-16.5283223237568 24.985449949203872)"/><path d="M1042.44 570.14c0-4.42 3.6-8 8-8h99.87c4.42 0 8 3.58 8 8v45.07c0 4.43-3.58 8-8 8h-99.86c-4.4 0-8-3.57-8-8z" stroke="#000" stroke-opacity="0" stroke-width="2" fill="#fff" fill-opacity="0"/><use xlink:href="#g" transform="matrix(1,0,0,1,1047.4444592080788,567.1360616529596) translate(22.080922896112913 17.03722601440008)"/><use xlink:href="#h" transform="matrix(1,0,0,1,1047.4444592080788,567.1360616529596) translate(14.97534333235063 32.48544994920387)"/><use xlink:href="#i" transform="matrix(1,0,0,1,1047.4444592080788,567.1360616529596) translate(-2.9583248341513375 47.93367388400766)"/><path d="M1106.27 452.27c0-4.4 3.58-8 8-8h189.57c4.42 0 8 3.6 8 8v35.66c0 4.42-3.58 8-8 8h-189.57c-4.42 0-8-3.58-8-8z" stroke="#000" stroke-opacity="0" stroke-width="2" fill="#fff" fill-opacity="0"/><use xlink:href="#j" transform="matrix(1,0,0,1,1111.2721233058728,449.27438214202357) translate(16.119887298683988 26.563561916605767)"/><use xlink:href="#k" transform="matrix(1,0,0,1,1111.2721233058728,449.27438214202357) translate(74.31473478745902 26.563561916605767)"/><use xlink:href="#l" transform="matrix(1,0,0,1,1111.2721233058728,449.27438214202357) translate(91.30928973136183 26.563561916605767)"/><path d="M243.3 517.8c0-4.43 3.6-8 8-8h99.87c4.42 0 8 3.57 8 8v30.34c0 4.4-3.58 8-8 8H251.3c-4.4 0-8-3.6-8-8z" stroke="#000" stroke-opacity="0" stroke-width="2" fill="#fff" fill-opacity="0"/><use xlink:href="#m" transform="matrix(1,0,0,1,248.30952697314797,514.7913898485713) translate(-7.257879347255884 24.985449949203872)"/><path d="M243.3 448.27c0-4.4 3.6-8 8-8h99.87c4.42 0 8 3.6 8 8v30.35c0 4.42-3.58 8-8 8H251.3c-4.4 0-8-3.58-8-8z" stroke="#000" stroke-opacity="0" stroke-width="2" fill="#fff" fill-opacity="0"/><use xlink:href="#n" transform="matrix(1,0,0,1,248.30952697314797,445.27438214190806) translate(20.553449582246817 23.001061916605767)"/><path d="M98.35 448c1.14-4.26 5.65-7.73 10.06-7.73h115.32c4.42 0 7.08 3.47 5.94 7.73L202.9 548.4c-1.15 4.28-5.65 7.74-10.07 7.74H77.53c-4.43 0-7.1-3.46-5.95-7.73z" stroke="#000" stroke-opacity="0" stroke-width="2" fill="#333"/><use xlink:href="#o" transform="matrix(1,0,0,1,74.51700770661705,445.27438214190806) translate(29.02022817606781 57.876342339150206)"/><use xlink:href="#p" transform="matrix(1,0,0,1,74.51700770661705,445.27438214190806) translate(79.0338531649951 57.876342339150206)"/><path d="M399.6 448c1.13-4.26 5.64-7.73 10.05-7.73h115.3c4.43 0 7.1 3.47 5.95 7.73l-26.77 100.4c-1.14 4.28-5.64 7.74-10.06 7.74h-115.3c-4.43 0-7.1-3.46-5.95-7.73z" stroke="#000" stroke-opacity="0" stroke-width="2" fill="#999"/><use xlink:href="#q" transform="matrix(1,0,0,1,375.7573744352909,445.27438214190806) translate(22.987553690416426 57.876342339150206)"/><use xlink:href="#r" transform="matrix(1,0,0,1,375.7573744352909,445.27438214190806) translate(77.0062737735521 57.876342339150206)"/><path d="M220.36 486.62H370.8" stroke="#666" stroke-width="2" fill="none"/><path d="M220.4 487.62h-1.3l.53-2h.76z" fill="#666"/><path d="M386.06 486.62l-14.27 4.63v-9.27z" stroke="#666" stroke-width="2" fill="#666"/><path d="M382.12 509.8H231.7" stroke="#666" stroke-width="2" fill="none"/><path d="M382.85 510.8h-.76v-2h1.28z" fill="#666"/><path d="M216.42 509.8l14.27-4.64v9.27z" stroke="#666" stroke-width="2" fill="#666"/><path d="M521.6 486.62h109c.12 0 .2.1.2.2 0 .12.1.2.22.2h91.5" stroke="#666" stroke-width="2" fill="none"/><path d="M521.63 487.62h-1.3l.54-2h.76z" fill="#666"/><path d="M737.78 487.03l-14.27 4.64v-9.27z" stroke="#666" stroke-width="2" fill="#666"/><path d="M740 510.04H627.85c-.06 0-.12-.06-.12-.12 0-.07-.06-.13-.12-.13h-94.67" stroke="#666" stroke-width="2" fill="none"/><path d="M741 511.04h-1v-2h1z" fill="#666"/><path d="M517.66 509.8l14.27-4.64v9.27z" stroke="#666" stroke-width="2" fill="#666"/><path d="M556.14 517.8c0-4.43 3.58-8 8-8H664c4.42 0 8 3.57 8 8v30.34c0 4.4-3.58 8-8 8h-99.86c-4.42 0-8-3.6-8-8z" stroke="#000" stroke-opacity="0" stroke-width="2" fill="#fff" fill-opacity="0"/><use xlink:href="#s" transform="matrix(1,0,0,1,561.1360616529306,514.7913898485713) translate(-7.257879347255884 24.985449949203872)"/><path d="M860.82 650.33v184.1" stroke="#666" stroke-width="2" fill="none"/><path d="M861.82 650.35h-2v-1.02h2z" fill="#666"/><path d="M860.82 849.68l-4.63-14.26h9.26z" stroke="#666" stroke-width="2" fill="#666"/><path d="M834.2 969.02V1049.54" stroke="#de5f85" fill="none"/><path d="M834.7 968.54v.5h-1v-.53z" fill="#de5f85"/><path d="M834.2 1064.3l-4.63-14.26h9.27z" stroke="#de5f85" fill="#de5f85"/><path d="M695.17 1073.93c0-4.42 3.58-8 8-8h516.96c4.42 0 8 3.58 8 8v34.48c0 4.43-3.58 8-8 8H703.17c-4.42 0-8-3.57-8-8z" stroke="#000" stroke-opacity="0" stroke-width="2" fill="#de5f85"/><use xlink:href="#t" transform="matrix(1,0,0,1,700.1700770661824,1070.9274515014617) translate(187.78121842222683 23.251342339150206)"/><use xlink:href="#u" transform="matrix(1,0,0,1,700.1700770661824,1070.9274515014617) translate(266.18095489135607 23.251342339150206)"/><path d="M1100.7 1065.43v-55.16" stroke="#de5f85" fill="none"/><path d="M1101.2 1065.93h-1v-.52h1z" fill="#de5f85"/><path d="M1100.7 995.5l4.62 14.27h-9.27z" stroke="#de5f85" fill="#de5f85"/><path d="M1094.44 908.72c3.45-2.76 9.04-2.76 12.5 0l45.43 36.35c3.45 2.76 3.45 7.23 0 10l-45.44 36.34c-3.45 2.77-9.04 2.77-12.5 0L1049 955.07c-3.45-2.76-3.45-7.23 0-10z" stroke="#000" fill="#fff"/><use xlink:href="#v" transform="matrix(1,0,0,1,1047.755115599256,908.7211001860449) translate(25.188671070497275 47.188561916605764)"/><path d="M1329.2 630.16c3.64-2.5 10.18-4.5 14.6-4.5h170.43c14.08 0 25.5 15.55 25.5 34.75s-11.42 34.77-25.5 34.77H1343.8c-4.42 0-10.96-2.02-14.6-4.5l-37.77-25.75c-3.65-2.5-3.65-6.53 0-9.02z" stroke="#000" stroke-opacity="0" stroke-width="2" fill="#ffeca9"/><use xlink:href="#w" transform="matrix(1,0,0,1,1289.8231464257228,630.6530693595998) translate(17.616572220417776 33.126342339150206)"/><use xlink:href="#x" transform="matrix(1,0,0,1,1289.8231464257228,630.6530693595998) translate(89.70828391616881 33.126342339150206)"/><use xlink:href="#y" transform="matrix(1,0,0,1,1289.8231464257228,630.6530693595998) translate(187.83311372427437 33.126342339150206)"/><path d="M1100.7 905.24v-1.1l.4-3.12.6-1.44m6.43-6.44l1.44-.6 3.12-.4h3.93m7.88 0h7.9m7.87 0h7.88m7.88 0h7.88m7.9 0h7.87m7.88 0h7.88m7.88 0h7.9m7.87 0h7.88m7.88 0h7.88m7.9 0h7.87m7.9 0h3.93" stroke="#666" stroke-width="2" fill="none"/><path d="M1101.7 906.22l-2 .04v-1.05h2z" fill="#666"/><path d="M1285.56 892.13l-14.26 4.64v-9.27z" stroke="#666" stroke-width="2" fill="#666"/><path d="M1330 951.44c3.2-3.05 9.38-5.5 13.8-5.5h170.43c14.08 0 25.5 21.66 25.5 48.4s-11.42 48.42-25.5 48.42H1343.8c-4.42 0-10.6-2.47-13.8-5.5l-39.38-37.4c-3.2-3.05-3.2-8 0-11.03z" stroke="#000" stroke-opacity="0" stroke-width="2" fill="#0c7cba"/><use xlink:href="#z" transform="matrix(1,0,0,1,1289.8231464257228,950.9274515015999) translate(48.55593182317759 48.032592339150206)"/><use xlink:href="#A" transform="matrix(1,0,0,1,1289.8231464257228,950.9274515015999) translate(118.4949049057916 48.032592339150206)"/><use xlink:href="#B" transform="matrix(1,0,0,1,1289.8231464257228,950.9274515015999) translate(141.82458382955548 48.032592339150206)"/><path d="M1156.35 950.07h4.46m8.92 0h8.9m8.9 0h8.92m8.9 0h4.46l3.1.4 1.45.6m6.44 6.44l.6 1.45.4 3.12v5.06m0 10.14v5.07l.4 3.12.6 1.44m6.44 6.44l1.45.6 3.1.4h4.5m8.98 0h8.98m9 0h4.48" stroke="#666" stroke-width="2" fill="none"/><path d="M1156.38 951.07h-1.03v-2h1.03z" fill="#666"/><path d="M1285 994.34l-14.26 4.64v-9.27z" stroke="#666" stroke-width="2" fill="#666"/><path d="M802.7 554.48c0-4.42 3.6-8 8-8h169.38c4.42 0 8 3.58 8 8v64.64c0 4.42-3.58 8-8 8H810.7c-4.4 0-8-3.58-8-8z" stroke="#000" stroke-opacity="0" fill="#ffeca9"/><path d="M794.53 545.3c0-4.4 3.58-8 8-8H971.9c4.43 0 8 3.6 8 8v64.65c0 4.42-3.57 8-8 8H802.54c-4.42 0-8-3.58-8-8z" stroke="#000" stroke-opacity="0" fill="#ffdf71"/><path d="M787.36 536.14c0-4.42 3.58-8 8-8h169.38c4.42 0 8 3.58 8 8v64.64c0 4.4-3.58 8-8 8H795.36c-4.42 0-8-3.6-8-8z" stroke="#000" stroke-opacity="0" fill="#fcc438"/><path d="M914.74 539.35c3.12-3.12 8.2-3.12 11.3 0l23.46 23.45c3.12 3.12 3.12 8.2 0 11.3l-23.45 23.46c-3.12 3.12-8.2 3.12-11.3 0l-23.46-23.45c-3.13-3.1-3.13-8.18 0-11.3z" stroke="#000" fill="#fff"/><use xlink:href="#v" transform="matrix(1,0,0,1,890.6349322349307,538.6974791921074) translate(2.188671070497275 36.48544994920387)"/><path d="M809.17 548.7c0-4.42 3.58-8 8-8h48.88c4.42 0 8 3.58 8 8v35.65c0 4.42-3.58 8-8 8h-48.88c-4.42 0-8-3.58-8-8z" stroke="#000" stroke-opacity="0" stroke-width="2" fill="#fff" fill-opacity="0"/><use xlink:href="#C" transform="matrix(1,0,0,1,814.1662239807254,545.6974791921074) translate(-0.31132892950272506 27.485449949203872)"/><path d="M1331.17 515.92c0-4.42 3.57-8.2 8-8.44l192.56-10.66c4.4-.24 8 3.14 8 7.56v53.5c0 4.43-3.6 8-8 8h-192.56c-4.42 0-8-3.57-8-8z" stroke="#000" stroke-opacity="0" stroke-width="2" fill="#b2b2b2"/><path d="M1320 505.75c0-4.42 3.57-8.2 7.98-8.45l192.58-10.65c4.4-.25 8 3.14 8 7.56v53.52c0 4.42-3.6 8-8 8H1328c-4.42 0-8-3.58-8-8z" stroke="#000" stroke-opacity="0" stroke-width="2" fill="#666"/><path d="M1308.82 478.25c0-4.42 3.58-8.27 7.98-8.6l192.6-14.2c4.4-.33 7.97 3 7.97 7.4v76.7c0 4.42-3.58 8-8 8h-192.55c-4.42 0-8-3.58-8-8z" stroke="#000" stroke-opacity="0" stroke-width="2" fill="#333"/><use xlink:href="#D" transform="matrix(1,0,0,1,1313.8231464257242,475.30877402793413) translate(28.960262653254727 37.251342339150206)"/><use xlink:href="#E" transform="matrix(1,0,0,1,1313.8231464257242,475.30877402793413) translate(80.97643518928619 37.251342339150206)"/><path d="M841.6 593.35v27c0 6.63 5.38 12 12 12h403.22c6.63 0 12-5.37 12-12V542.2c0-6.62 5.38-12 12-12h9.5" stroke="#666" stroke-width="2" fill="none"/><path d="M842.6 593.38h-2v-1.03h2z" fill="#666"/><path d="M1305.6 530.2l-14.28 4.64v-9.27z" stroke="#666" stroke-width="2" fill="#666"/><path d="M1307.82 486.02H1075.1c-.17 0-.3.13-.3.3 0 .16-.14.3-.3.3H852.77c-6.62 0-12 5.37-12 12v29.36" stroke="#666" stroke-width="2" fill="none"/><path d="M1308.82 487.02h-1.02v-2h1.02z" fill="#666"/><path d="M840.77 543.24l-4.63-14.26h9.27z" stroke="#666" stroke-width="2" fill="#666"/><path d="M920.4 601.4v3.92m0 7.84V621m0 7.83v7.83m0 7.83v3.9l.4 3.13.6 1.44m6.44 6.44l1.44.6 3.1.4h4.04m8.04 0h8.05m8.05 0h8.05m8.04 0h8.05m8.03 0h8.05m8.04 0h8.05m8.04 0h8.06m8.04 0h8.05m8.05 0h8.04m8.05 0h8.03m8.05 0h8.04m8.05 0h8.04m8.06 0h8.04m8.05 0h8.04m8.04 0h8.04m8.05 0h8.04m8.05 0h8.05m8.04 0h8.06m8.04 0h8.05m8.04 0h8.04m8.04 0h8.05m8.04 0h4.03" stroke="#666" stroke-width="2" fill="none"/><path d="M921.4 601.43h-2v-1.16l1 .14 1-.13z" fill="#666"/><path d="M1285.56 660.4l-14.26 4.65v-9.27z" stroke="#666" stroke-width="2" fill="#666"/><path d="M1307.82 486.02h-192.9c-.18 0-.3.13-.3.3 0 .16-.15.3-.3.3H932.38c-6.63 0-12 5.37-12 12V518" stroke="#666" stroke-width="2" fill="none"/><path d="M1308.82 487.02h-1.02v-2h1.02z" fill="#666"/><path d="M920.4 533.27L915.75 519h9.27z" stroke="#666" stroke-width="2" fill="#666"/><path d="M764.7 448.27c0-4.4 3.57-8 8-8H895.7c4.42 0 8 3.6 8 8v30.35c0 4.42-3.58 8-8 8H772.7c-4.43 0-8-3.58-8-8z" stroke="#000" stroke-opacity="0" stroke-width="2" fill="#fff" fill-opacity="0"/><g><use xlink:href="#F" transform="matrix(1,0,0,1,769.6870842152514,445.274382141885) translate(20.51841260994806 22.751342339150206)"/><use xlink:href="#G" transform="matrix(1,0,0,1,769.6870842152514,445.274382141885) translate(67.42808890086383 22.751342339150206)"/></g><path d="M1329.2 861.88c3.64-2.5 10.18-4.5 14.6-4.5h170.43c14.08 0 25.5 15.56 25.5 34.75 0 19.2-11.42 34.76-25.5 34.76H1343.8c-4.42 0-10.96-2.02-14.6-4.5l-37.77-25.76c-3.65-2.5-3.65-6.52 0-9z" stroke="#000" stroke-opacity="0" stroke-width="2" fill="#ffeca9"/><g><use xlink:href="#w" transform="matrix(1,0,0,1,1289.8231464257228,862.3764283816793) translate(47.47956251660908 33.126342339150206)"/><use xlink:href="#H" transform="matrix(1,0,0,1,1289.8231464257228,862.3764283816793) translate(119.57127421236011 33.126342339150206)"/><use xlink:href="#I" transform="matrix(1,0,0,1,1289.8231464257228,862.3764283816793) translate(142.90095313612397 33.126342339150206)"/></g><defs><path fill="#0c7cba" d="M59-47c-2 24 18 29 38 22v24C64 9 27 4 27-40v-127H5v-23h24l9-43h21v43h35v23H59v120" id="J"/><path fill="#0c7cba" d="M114-163C36-179 61-72 57 0H25l-1-190h30c1 12-1 29 2 39 6-27 23-49 58-41v29" id="K"/><path fill="#0c7cba" d="M84 4C-5 8 30-112 23-190h32v120c0 31 7 50 39 49 72-2 45-101 50-169h31l1 190h-30c-1-10 1-25-2-33-11 22-28 36-60 37" id="L"/><path fill="#0c7cba" d="M135-143c-3-34-86-38-87 0 15 53 115 12 119 90S17 21 10-45l28-5c4 36 97 45 98 0-10-56-113-15-118-90-4-57 82-63 122-42 12 7 21 19 24 35" id="M"/><g id="a"><use transform="matrix(0.050063688677604884,0,0,0.050063688677604884,0,0)" xlink:href="#J"/><use transform="matrix(0.050063688677604884,0,0,0.050063688677604884,5.0063688677604885,0)" xlink:href="#K"/><use transform="matrix(0.050063688677604884,0,0,0.050063688677604884,10.96394782039547,0)" xlink:href="#L"/><use transform="matrix(0.050063688677604884,0,0,0.050063688677604884,20.976685555916447,0)" xlink:href="#M"/><use transform="matrix(0.050063688677604884,0,0,0.050063688677604884,29.988149517885326,0)" xlink:href="#J"/></g><path fill="#0c7cba" d="M115-194c53 0 69 39 70 98 0 66-23 100-70 100C84 3 66-7 56-30L54 0H23l1-261h32v101c10-23 28-34 59-34zm-8 174c40 0 45-34 45-75 0-40-5-75-45-74-42 0-51 32-51 76 0 43 10 73 51 73" id="N"/><path fill="#0c7cba" d="M100-194c62-1 85 37 85 99 1 63-27 99-86 99S16-35 15-95c0-66 28-99 85-99zM99-20c44 1 53-31 53-75 0-43-8-75-51-75s-53 32-53 75 10 74 51 75" id="O"/><path fill="#0c7cba" d="M117-194c89-4 53 116 60 194h-32v-121c0-31-8-49-39-48C34-167 62-67 57 0H25l-1-190h30c1 10-1 24 2 32 11-22 29-35 61-36" id="P"/><path fill="#0c7cba" d="M85-194c31 0 48 13 60 33l-1-100h32l1 261h-30c-2-10 0-23-3-31C134-8 116 4 85 4 32 4 16-35 15-94c0-66 23-100 70-100zm9 24c-40 0-46 34-46 75 0 40 6 74 45 74 42 0 51-32 51-76 0-42-9-74-50-73" id="Q"/><path fill="#0c7cba" d="M141-36C126-15 110 5 73 4 37 3 15-17 15-53c-1-64 63-63 125-63 3-35-9-54-41-54-24 1-41 7-42 31l-33-3c5-37 33-52 76-52 45 0 72 20 72 64v82c-1 20 7 32 28 27v20c-31 9-61-2-59-35zM48-53c0 20 12 33 32 33 41-3 63-29 60-74-43 2-92-5-92 41" id="R"/><path fill="#0c7cba" d="M179-190L93 31C79 59 56 82 12 73V49c39 6 53-20 64-50L1-190h34L92-34l54-156h33" id="S"/><path fill="#0c7cba" d="M68-38c1 34 0 65-14 84H32c9-13 17-26 17-46H33v-38h35" id="T"/><g id="b"><use transform="matrix(0.050063688677604884,0,0,0.050063688677604884,0,0)" xlink:href="#N"/><use transform="matrix(0.050063688677604884,0,0,0.050063688677604884,10.012737735520977,0)" xlink:href="#O"/><use transform="matrix(0.050063688677604884,0,0,0.050063688677604884,20.025475471041954,0)" xlink:href="#L"/><use transform="matrix(0.050063688677604884,0,0,0.050063688677604884,30.03821320656293,0)" xlink:href="#P"/><use transform="matrix(0.050063688677604884,0,0,0.050063688677604884,40.05095094208391,0)" xlink:href="#Q"/><use transform="matrix(0.050063688677604884,0,0,0.050063688677604884,50.06368867760489,0)" xlink:href="#R"/><use transform="matrix(0.050063688677604884,0,0,0.050063688677604884,60.07642641312586,0)" xlink:href="#K"/><use transform="matrix(0.050063688677604884,0,0,0.050063688677604884,66.03400536576085,0)" xlink:href="#S"/><use transform="matrix(0.050063688677604884,0,0,0.050063688677604884,73.6937497334344,0)" xlink:href="#T"/></g><path fill="#0c7cba" d="M115-194c55 1 70 41 70 98S169 2 115 4C84 4 66-9 55-30l1 105H24l-1-265h31l2 30c10-21 28-34 59-34zm-8 174c40 0 45-34 45-75s-6-73-45-74c-42 0-51 32-51 76 0 43 10 73 51 73" id="U"/><path fill="#0c7cba" d="M100-194c63 0 86 42 84 106H49c0 40 14 67 53 68 26 1 43-12 49-29l28 8c-11 28-37 45-77 45C44 4 14-33 15-96c1-61 26-98 85-98zm52 81c6-60-76-77-97-28-3 7-6 17-6 28h103" id="V"/><path fill="#0c7cba" d="M101-234c-31-9-42 10-38 44h38v23H63V0H32v-167H5v-23h27c-7-52 17-82 69-68v24" id="W"/><g id="c"><use transform="matrix(0.050063688677604884,0,0,0.050063688677604884,0,0)" xlink:href="#J"/><use transform="matrix(0.050063688677604884,0,0,0.050063688677604884,5.0063688677604885,0)" xlink:href="#S"/><use transform="matrix(0.050063688677604884,0,0,0.050063688677604884,14.017832829729368,0)" xlink:href="#U"/><use transform="matrix(0.050063688677604884,0,0,0.050063688677604884,24.030570565250343,0)" xlink:href="#V"/><use transform="matrix(0.050063688677604884,0,0,0.050063688677604884,34.04330830077132,0)" xlink:href="#M"/><use transform="matrix(0.050063688677604884,0,0,0.050063688677604884,43.0547722627402,0)" xlink:href="#R"/><use transform="matrix(0.050063688677604884,0,0,0.050063688677604884,53.06750999826118,0)" xlink:href="#W"/><use transform="matrix(0.050063688677604884,0,0,0.050063688677604884,58.073878866021666,0)" xlink:href="#V"/></g><path fill="#fff" d="M143 4C61 4 22-44 18-125c-5-107 100-154 193-111 17 8 29 25 37 43l-32 9c-13-25-37-40-76-40-61 0-88 39-88 99 0 61 29 100 91 101 35 0 62-11 79-27v-45h-74v-28h105v86C228-13 192 4 143 4" id="X"/><path fill="#fff" d="M114-163C36-179 61-72 57 0H25l-1-190h30c1 12-1 29 2 39 6-27 23-49 58-41v29" id="Y"/><path fill="#fff" d="M141-36C126-15 110 5 73 4 37 3 15-17 15-53c-1-64 63-63 125-63 3-35-9-54-41-54-24 1-41 7-42 31l-33-3c5-37 33-52 76-52 45 0 72 20 72 64v82c-1 20 7 32 28 27v20c-31 9-61-2-59-35zM48-53c0 20 12 33 32 33 41-3 63-29 60-74-43 2-92-5-92 41" id="Z"/><path fill="#fff" d="M115-194c55 1 70 41 70 98S169 2 115 4C84 4 66-9 55-30l1 105H24l-1-265h31l2 30c10-21 28-34 59-34zm-8 174c40 0 45-34 45-75s-6-73-45-74c-42 0-51 32-51 76 0 43 10 73 51 73" id="aa"/><path fill="#fff" d="M106-169C34-169 62-67 57 0H25v-261h32l-1 103c12-21 28-36 61-36 89 0 53 116 60 194h-32v-121c2-32-8-49-39-48" id="ab"/><path fill="#fff" d="M145-31C134-9 116 4 85 4 32 4 16-35 15-94c0-59 17-99 70-100 32-1 48 14 60 33 0-11-1-24 2-32h30l-1 268h-32zM93-21c41 0 51-33 51-76s-8-73-50-73c-40 0-46 35-46 75s5 74 45 74" id="ac"/><path fill="#fff" d="M24 0v-261h32V0H24" id="ad"/><g id="d"><use transform="matrix(0.050063688677604884,0,0,0.050063688677604884,0,0)" xlink:href="#X"/><use transform="matrix(0.050063688677604884,0,0,0.050063688677604884,14.017832829729368,0)" xlink:href="#Y"/><use transform="matrix(0.050063688677604884,0,0,0.050063688677604884,19.97541178236435,0)" xlink:href="#Z"/><use transform="matrix(0.050063688677604884,0,0,0.050063688677604884,29.988149517885326,0)" xlink:href="#aa"/><use transform="matrix(0.050063688677604884,0,0,0.050063688677604884,40.000887253406304,0)" xlink:href="#ab"/><use transform="matrix(0.050063688677604884,0,0,0.050063688677604884,50.01362498892728,0)" xlink:href="#ac"/><use transform="matrix(0.050063688677604884,0,0,0.050063688677604884,60.02636272444827,0)" xlink:href="#ad"/></g><path fill="#fff" d="M33 0v-248h34V0H33" id="ae"/><path fill="#fff" d="M117-194c89-4 53 116 60 194h-32v-121c0-31-8-49-39-48C34-167 62-67 57 0H25l-1-190h30c1 10-1 24 2 32 11-22 29-35 61-36" id="af"/><path fill="#fff" d="M84 4C-5 8 30-112 23-190h32v120c0 31 7 50 39 49 72-2 45-101 50-169h31l1 190h-30c-1-10 1-25-2-33-11 22-28 36-60 37" id="ag"/><path fill="#fff" d="M59-47c-2 24 18 29 38 22v24C64 9 27 4 27-40v-127H5v-23h24l9-43h21v43h35v23H59v120" id="ah"/><g id="e"><use transform="matrix(0.050063688677604884,0,0,0.050063688677604884,0,0)" xlink:href="#ae"/><use transform="matrix(0.050063688677604884,0,0,0.050063688677604884,5.0063688677604885,0)" xlink:href="#af"/><use transform="matrix(0.050063688677604884,0,0,0.050063688677604884,15.019106603281465,0)" xlink:href="#aa"/><use transform="matrix(0.050063688677604884,0,0,0.050063688677604884,25.031844338802443,0)" xlink:href="#ag"/><use transform="matrix(0.050063688677604884,0,0,0.050063688677604884,35.04458207432342,0)" xlink:href="#ah"/></g><path fill="#333" d="M839-1335c-182-6-269 67-259 253h491v142H580V0H400v-940H138v-142h262c-15-293 132-408 418-402 94 2 200 7 281 21v145c-75-10-177-14-260-17" id="ai"/><path fill="#333" d="M839-1102c70 0 148 7 206 17v167c-112-18-268-36-363 15-129 69-208 203-208 395V0H294c-10-367 32-789-52-1082h171c21 75 41 161 48 250h5c67-152 152-270 373-270" id="aj"/><path fill="#333" d="M615-1102c343 0 484 203 482 560-1 347-147 562-488 562-336 0-475-219-479-562-4-349 156-560 485-560zm-8 989c240 0 301-180 301-429 0-245-55-427-290-427-236 0-299 181-299 427 0 243 61 429 288 429" id="ak"/><path fill="#333" d="M904-1102c199 0 220 177 220 381V0H956v-686c-3-114 0-215-60-264-70-33-125-4-158 71-26 56-39 140-39 252V0H531v-686c-3-114-1-215-61-264-78-41-136 24-157 84-24 69-39 159-39 259V0H105c-3-360 6-732-6-1082h149c6 50 3 123 8 175 36-100 83-195 216-195 135 0 166 79 196 196 42-105 93-196 236-196" id="al"/><path fill="#333" d="M102-681c0-398 126-689 513-689 165 0 291 58 379 174s132 287 132 515c0 353-105 610-380 685 49 143 111 234 276 240 36 1 86-7 115-13v134c-94 24-238 34-327-3-143-59-210-191-259-346-336-41-449-320-449-697zm749 406c94-160 97-656-5-807-57-85-130-132-231-132-104 0-178 47-234 132-101 153-99 655 1 809 57 89 130 138 232 138 109 0 184-49 237-140" id="am"/><path fill="#333" d="M528 20c-247 0-343-132-343-381v-721h180v686c-4 177 45 284 224 277 194-8 279-136 279-336v-627h181c3 360-6 732 6 1082H885c-4-54-7-126-8-185h-3C809-64 714 20 528 20" id="an"/><path fill="#333" d="M617-1102c355 0 481 238 477 599H322c5 222 84 388 301 388 144 0 244-59 284-166l158 45C1002-72 854 20 623 20c-342 0-490-220-490-568 0-346 151-554 484-554zm291 461c-18-192-90-328-289-328-194 0-287 128-295 328h584" id="ao"/><path fill="#333" d="M168 279c222 39 310-114 368-290L66-1082h192c120 299 249 590 362 896 115-301 235-597 351-896h190L705 0c-65 164-130 320-275 396-67 36-177 35-262 18V279" id="ap"/><path fill="#333" d="M102-681c0-398 126-689 513-689 165 0 291 58 379 174s132 287 132 515c-1 318-88 554-298 657-123 61-317 58-438-3-206-104-288-341-288-654zm749 406c94-160 97-656-5-807-57-85-130-132-231-132-104 0-178 47-234 132-101 153-99 655 1 809 57 89 130 138 232 138 109 0 184-49 237-140" id="aq"/><path fill="#333" d="M365-904c58-129 161-200 334-200 130 0 228 46 293 138s98 233 98 420c0 189-34 331-102 425S824 20 698 20c-170 0-275-64-336-184 0 55-3 116-9 164H179c5-68 6-147 6-223v-1261h180c-2 193 4 394-4 580h4zm283 791c221 0 256-197 256-427 0-229-34-425-254-425-236 0-285 195-285 441 0 237 53 411 283 411" id="ar"/><path fill="#333" d="M390 276c167 0 266-82 266-251v-965H249v-142h587V28c-4 270-165 397-431 397-107 0-208-16-288-43V242c80 18 173 34 273 34zm246-1568v-192h200v192H636" id="as"/><path fill="#333" d="M631 20c-350 0-501-215-501-562 0-355 162-560 502-560 250 0 399 118 446 323l-192 14c-23-124-109-196-262-196-242 0-305 171-305 415 1 245 61 427 304 427 151 0 248-77 267-215l190 12C1039-107 883 20 631 20" id="at"/><path fill="#333" d="M682 16c-209 0-323-80-324-285v-671H190v-142h170l58-282h120v282h432v142H538v652c2 114 60 155 182 155 106 0 209-16 297-34v137C921-4 806 16 682 16" id="au"/><g id="f"><use transform="matrix(0.007543078093165914,0,0,0.007543078093165914,0,0)" xlink:href="#ai"/><use transform="matrix(0.007543078093165914,0,0,0.007543078093165914,9.270442976500908,0)" xlink:href="#aj"/><use transform="matrix(0.007543078093165914,0,0,0.007543078093165914,18.540885953001816,0)" xlink:href="#ak"/><use transform="matrix(0.007543078093165914,0,0,0.007543078093165914,27.81132892950272,0)" xlink:href="#al"/><use transform="matrix(0.007543078093165914,0,0,0.007543078093165914,37.08177190600363,0)" xlink:href="#am"/><use transform="matrix(0.007543078093165914,0,0,0.007543078093165914,46.35221488250454,0)" xlink:href="#an"/><use transform="matrix(0.007543078093165914,0,0,0.007543078093165914,55.62265785900545,0)" xlink:href="#ao"/><use transform="matrix(0.007543078093165914,0,0,0.007543078093165914,64.89310083550636,0)" xlink:href="#aj"/><use transform="matrix(0.007543078093165914,0,0,0.007543078093165914,74.16354381200726,0)" xlink:href="#ap"/><use transform="matrix(0.007543078093165914,0,0,0.007543078093165914,83.43398678850816,0)" xlink:href="#aq"/><use transform="matrix(0.007543078093165914,0,0,0.007543078093165914,92.70442976500907,0)" xlink:href="#ar"/><use transform="matrix(0.007543078093165914,0,0,0.007543078093165914,101.97487274150997,0)" xlink:href="#as"/><use transform="matrix(0.007543078093165914,0,0,0.007543078093165914,111.24531571801087,0)" xlink:href="#ao"/><use transform="matrix(0.007543078093165914,0,0,0.007543078093165914,120.51575869451177,0)" xlink:href="#at"/><use transform="matrix(0.007543078093165914,0,0,0.007543078093165914,129.7862016710127,0)" xlink:href="#au"/></g><path fill="#333" d="M34-1081h870v131H557V0H381v-950H34v-131" id="av"/><path fill="#333" d="M569-1104c358 0 489 239 478 603H279c0 228 80 381 302 387 148 6 245-68 279-165l159 46C956-74 809 23 581 23 251 23 80-187 86-546c6-347 148-558 484-558zm296 461c34-341-432-438-552-159-17 40-34 97-34 159h586" id="aw"/><path fill="#333" d="M427-495c-23 6-80 17-108 17V0H137v-1081h182v472c148-11 176-119 245-233l148-239h188L553-592 906 0H707" id="ax"/><path fill="#333" d="M1018-1081L529 176C449 335 319 466 68 415V278C290 312 370 164 432-6L5-1081h193l324 887 307-887h188" id="ay"/><path fill="#333" d="M142 0v-1081h182v950h404v-950h176v950h404v-950h182v950h148v540h-165V-1H142" id="az"/><g id="g"><use transform="matrix(0.007543078093165914,0,0,0.007543078093165914,0,0)" xlink:href="#av"/><use transform="matrix(0.007543078093165914,0,0,0.007543078093165914,6.864201064780982,0)" xlink:href="#aw"/><use transform="matrix(0.007543078093165914,0,0,0.007543078093165914,16.134644041281888,0)" xlink:href="#ax"/><use transform="matrix(0.007543078093165914,0,0,0.007543078093165914,23.044103574621865,0)" xlink:href="#ay"/><use transform="matrix(0.007543078093165914,0,0,0.007543078093165914,30.76821554202376,0)" xlink:href="#az"/><use transform="matrix(0.007543078093165914,0,0,0.007543078093165914,43.29726825477235,0)" xlink:href="#aw"/><use transform="matrix(0.007543078093165914,0,0,0.007543078093165914,52.56771123127326,0)" xlink:href="#aw"/></g><path fill="#333" d="M546-961c-228 0-273 188-273 415 0 228 51 427 273 427 137 0 233-80 245-216l182 11C939-114 797 23 552 23 216 23 120-210 86-540c-57-529 575-745 836-364 23 40 28 80 40 125l-182 17c-23-119-91-199-233-199" id="aA"/><path fill="#333" d="M654-1104c313 6 398 233 398 558 0 324-91 558-398 569-176 0-279-74-341-193l6 597H137l-6-1508h176l11 171c57-119 159-193 336-193zm-45 990c228 0 256-193 256-427 0-233-34-415-256-421-239 0-290 182-290 432 0 245 57 415 290 415" id="aB"/><path fill="#333" d="M569-1104c353-6 484 210 484 563 6 358-154 563-489 563C228 22 92-200 86-541c0-375 159-563 484-563zm-6 990c250 6 302-176 302-427 0-245-46-427-290-427-245 0-302 182-302 427s57 421 290 427" id="aC"/><path fill="#333" d="M1001-313C1001 62 529 0 142 0v-1081c347 17 808-85 819 267 6 165-119 199-222 250 154 17 262 91 262 250zm-193 0c0-233-267-171-484-182v364c216-6 484 46 484-182zm-34-472c0-205-250-148-449-159v319c193-11 449 46 449-159" id="aD"/><g id="h"><use transform="matrix(0.007543078093165914,0,0,0.007543078093165914,0,0)" xlink:href="#aA"/><use transform="matrix(0.007543078093165914,0,0,0.007543078093165914,7.724111967401896,0)" xlink:href="#av"/><use transform="matrix(0.007543078093165914,0,0,0.007543078093165914,14.761803828325693,0)" xlink:href="#aB"/><use transform="matrix(0.007543078093165914,0,0,0.007543078093165914,24.0322468048266,0)" xlink:href="#aC"/><use transform="matrix(0.007543078093165914,0,0,0.007543078093165914,33.30268978132751,0)" xlink:href="#ax"/><use transform="matrix(0.007543078093165914,0,0,0.007543078093165914,40.212149314667485,0)" xlink:href="#aC"/><use transform="matrix(0.007543078093165914,0,0,0.007543078093165914,49.482592291168395,0)" xlink:href="#aD"/><use transform="matrix(0.007543078093165914,0,0,0.007543078093165914,57.50842738229693,0)" xlink:href="#aC"/><use transform="matrix(0.007543078093165914,0,0,0.007543078093165914,66.77887035879783,0)" xlink:href="#aw"/></g><path fill="#333" d="M967-1081V0H785v-950H324V0H142v-1081h825" id="aE"/><path fill="#333" d="M836-950H529c-57 279-91 592-193 819h501v-819zM137-131c148-250 176-580 233-950h643v950h148v540H996V-1H182v410H23v-540h114" id="aF"/><path fill="#333" d="M802-205C717-86 626 28 415 23 210 17 85-96 85-301c-6-364 358-358 711-358 17-199-51-307-233-307-137 6-233 40-239 176l-188-17c28-210 188-296 432-296 256 0 410 114 410 364v466c-6 114 40 182 159 154V-5C961 46 790-16 801-204zm-529-97c0 114 68 188 182 188 233-17 358-165 341-421-245 11-523-28-523 233" id="aG"/><path fill="#333" d="M870 0v-950H495C421-614 461-154 216 0 165 28 68 34 11 6v-125c290 23 222-364 279-637 28-142 23-142 46-324h717V1H871" id="aH"/><path fill="#333" d="M324-1081v455h484v-455h182V0H808v-495H324V0H142v-1081h182" id="aI"/><path fill="#333" d="M319-1081l-11 870 501-870h193V0H831l11-870L336 0H143v-1081h176" id="aJ"/><g id="i"><use transform="matrix(0.007543078093165914,0,0,0.007543078093165914,0,0)" xlink:href="#aE"/><use transform="matrix(0.007543078093165914,0,0,0.007543078093165914,8.32755821485517,0)" xlink:href="#aB"/><use transform="matrix(0.007543078093165914,0,0,0.007543078093165914,17.598001191356076,0)" xlink:href="#aw"/><use transform="matrix(0.007543078093165914,0,0,0.007543078093165914,26.52146257557135,0)" xlink:href="#aF"/><use transform="matrix(0.007543078093165914,0,0,0.007543078093165914,35.53544089690462,0)" xlink:href="#aA"/><use transform="matrix(0.007543078093165914,0,0,0.007543078093165914,43.259552864306514,0)" xlink:href="#av"/><use transform="matrix(0.007543078093165914,0,0,0.007543078093165914,50.1237539290875,0)" xlink:href="#aG"/><use transform="matrix(0.007543078093165914,0,0,0.007543078093165914,59.39419690558841,0)" xlink:href="#aD"/><use transform="matrix(0.007543078093165914,0,0,0.007543078093165914,67.24654120057413,0)" xlink:href="#aH"/><use transform="matrix(0.007543078093165914,0,0,0.007543078093165914,76.2605195219074,0)" xlink:href="#aw"/><use transform="matrix(0.007543078093165914,0,0,0.007543078093165914,85.5309624984083,0)" xlink:href="#aI"/><use transform="matrix(0.007543078093165914,0,0,0.007543078093165914,94.02446843131312,0)" xlink:href="#aJ"/><use transform="matrix(0.007543078093165914,0,0,0.007543078093165914,102.64620669180177,0)" xlink:href="#aw"/></g><g id="j"><use transform="matrix(0.007543078093165914,0,0,0.007543078093165914,0,0)" xlink:href="#aA"/><use transform="matrix(0.007543078093165914,0,0,0.007543078093165914,7.724111967401896,0)" xlink:href="#aw"/><use transform="matrix(0.007543078093165914,0,0,0.007543078093165914,16.48162563356752,0)" xlink:href="#av"/><use transform="matrix(0.007543078093165914,0,0,0.007543078093165914,23.519317494491318,0)" xlink:href="#av"/><use transform="matrix(0.007543078093165914,0,0,0.007543078093165914,30.3835185592723,0)" xlink:href="#aw"/><use transform="matrix(0.007543078093165914,0,0,0.007543078093165914,39.653961535773206,0)" xlink:href="#aB"/></g><use transform="matrix(0.007543078093165914,0,0,0.007543078093165914,0,0)" xlink:href="#aA" id="k"/><path fill="#333" d="M324-1081v950h472v-950h182v950h148v540H961V-1H142v-1081h182" id="aK"/><path fill="#333" d="M939-1519c46 381-626 427-711 114-11-40-23-74-23-114h165c6 131 74 199 205 199s193-74 205-199h159zm-620 438l-11 870 501-870h193V0H831l11-870L336 0H143v-1081h176" id="aL"/><g id="l"><use transform="matrix(0.007543078093165914,0,0,0.007543078093165914,0,0)" xlink:href="#aD"/><use transform="matrix(0.007543078093165914,0,0,0.007543078093165914,8.025835091128531,0)" xlink:href="#aG"/><use transform="matrix(0.007543078093165914,0,0,0.007543078093165914,17.296278067629437,0)" xlink:href="#aH"/><use transform="matrix(0.007543078093165914,0,0,0.007543078093165914,26.310256388962706,0)" xlink:href="#aJ"/><use transform="matrix(0.007543078093165914,0,0,0.007543078093165914,34.93199464945135,0)" xlink:href="#aF"/><use transform="matrix(0.007543078093165914,0,0,0.007543078093165914,43.94597297078462,0)" xlink:href="#aG"/><use transform="matrix(0.007543078093165914,0,0,0.007543078093165914,53.216415947285526,0)" xlink:href="#aK"/><use transform="matrix(0.007543078093165914,0,0,0.007543078093165914,62.05690347247597,0)" xlink:href="#aJ"/><use transform="matrix(0.007543078093165914,0,0,0.007543078093165914,70.67864173296462,0)" xlink:href="#aw"/><use transform="matrix(0.007543078093165914,0,0,0.007543078093165914,79.94908470946552,0)" xlink:href="#aL"/></g><path fill="#333" d="M614-1226c-167 1-283 53-283 213 0 183 186 193 334 234 230 63 463 120 463 409 0 286-219 387-518 390C309 23 131-98 79-338l185-37c34 165 149 248 351 246 184-2 324-58 324-238 0-203-207-221-372-266-210-57-422-111-422-377 0-267 201-356 470-360 279-5 430 101 480 324l-188 33c-28-141-121-215-293-213" id="aM"/><path fill="#333" d="M745-142h380V0H143v-142h422v-798H246v-142h499v940zM545-1292v-192h200v192H545" id="aN"/><path fill="#333" d="M706-1102c241 0 344 136 343 381V0H868v-695c1-168-57-273-220-268-190 6-283 138-283 336V0H185c-3-360 6-732-6-1082h170c4 54 7 126 8 185h3c63-121 164-204 346-205" id="aO"/><path fill="#333" d="M1048-32c-2 300-135 456-433 456-222-1-358-88-400-267l184-25c22 99 100 157 222 156 184-2 248-125 248-315 0-64 3-133-2-194C807-100 706-13 524-12c-306 0-381-228-381-537 0-318 85-550 400-550 164 0 271 83 325 202h3c1-60 3-134 12-185h171c-13 339-4 702-6 1050zM585-145c210-8 284-178 284-406 0-192-52-331-177-392-33-16-69-22-104-22-223 2-259 184-259 414 0 229 31 415 256 406" id="aP"/><g id="m"><use transform="matrix(0.007543078093165914,0,0,0.007543078093165914,0,0)" xlink:href="#au"/><use transform="matrix(0.007543078093165914,0,0,0.007543078093165914,9.270442976500908,0)" xlink:href="#ak"/><use transform="matrix(0.007543078093165914,0,0,0.007543078093165914,18.540885953001816,0)" xlink:href="#am"/><use transform="matrix(0.007543078093165914,0,0,0.007543078093165914,27.81132892950272,0)" xlink:href="#an"/><use transform="matrix(0.007543078093165914,0,0,0.007543078093165914,37.08177190600363,0)" xlink:href="#ao"/><use transform="matrix(0.007543078093165914,0,0,0.007543078093165914,46.35221488250454,0)" xlink:href="#aj"/><use transform="matrix(0.007543078093165914,0,0,0.007543078093165914,55.62265785900545,0)" xlink:href="#ap"/><use transform="matrix(0.007543078093165914,0,0,0.007543078093165914,64.89310083550636,0)" xlink:href="#aM"/><use transform="matrix(0.007543078093165914,0,0,0.007543078093165914,74.16354381200726,0)" xlink:href="#au"/><use transform="matrix(0.007543078093165914,0,0,0.007543078093165914,83.43398678850816,0)" xlink:href="#aj"/><use transform="matrix(0.007543078093165914,0,0,0.007543078093165914,92.70442976500907,0)" xlink:href="#aN"/><use transform="matrix(0.007543078093165914,0,0,0.007543078093165914,101.97487274150997,0)" xlink:href="#aO"/><use transform="matrix(0.007543078093165914,0,0,0.007543078093165914,111.24531571801087,0)" xlink:href="#aP"/></g><path fill="#333" d="M912-211c-10-84-18-177-18-274v-864h172V0H836L316-1130c7 79 16 167 16 254V0H162v-1349h222" id="aQ"/><path fill="#333" d="M932 0L611-444 288 0H94l415-556-397-526h199l300 421 298-421h201L713-558 1133 0H932" id="aR"/><path fill="#333" d="M496 0v-299h235V0H496" id="aS"/><path fill="#333" d="M873-819c-18-114-119-146-250-146-163 0-245 50-245 151 0 151 170 148 294 185 182 54 388 94 388 320 0 240-189 325-439 329-245 4-410-69-454-268l159-31c24 133 136 168 295 165 144-2 270-31 270-171 0-164-195-160-331-202-167-52-350-87-350-299 0-218 173-315 413-313 220 2 373 77 412 260" id="aT"/><g id="n"><use transform="matrix(0.007543078093165914,0,0,0.007543078093165914,0,0)" xlink:href="#aQ"/><use transform="matrix(0.007543078093165914,0,0,0.007543078093165914,9.270442976500908,0)" xlink:href="#ao"/><use transform="matrix(0.007543078093165914,0,0,0.007543078093165914,18.540885953001816,0)" xlink:href="#aR"/><use transform="matrix(0.007543078093165914,0,0,0.007543078093165914,27.81132892950272,0)" xlink:href="#au"/><use transform="matrix(0.007543078093165914,0,0,0.007543078093165914,37.08177190600363,0)" xlink:href="#aS"/><use transform="matrix(0.007543078093165914,0,0,0.007543078093165914,46.35221488250454,0)" xlink:href="#as"/><use transform="matrix(0.007543078093165914,0,0,0.007543078093165914,55.62265785900545,0)" xlink:href="#aT"/></g><path fill="#fff" d="M100-194c63 0 86 42 84 106H49c0 40 14 67 53 68 26 1 43-12 49-29l28 8c-11 28-37 45-77 45C44 4 14-33 15-96c1-61 26-98 85-98zm52 81c6-60-76-77-97-28-3 7-6 17-6 28h103" id="aU"/><path fill="#fff" d="M179-190L93 31C79 59 56 82 12 73V49c39 6 53-20 64-50L1-190h34L92-34l54-156h33" id="aV"/><g id="o"><use transform="matrix(0.050063688677604884,0,0,0.050063688677604884,0,0)" xlink:href="#ac"/><use transform="matrix(0.050063688677604884,0,0,0.050063688677604884,10.012737735520977,0)" xlink:href="#ag"/><use transform="matrix(0.050063688677604884,0,0,0.050063688677604884,20.025475471041954,0)" xlink:href="#aU"/><use transform="matrix(0.050063688677604884,0,0,0.050063688677604884,30.03821320656293,0)" xlink:href="#Y"/><use transform="matrix(0.050063688677604884,0,0,0.050063688677604884,35.99579215919791,0)" xlink:href="#aV"/></g><path fill="#fff" d="M135-143c-3-34-86-38-87 0 15 53 115 12 119 90S17 21 10-45l28-5c4 36 97 45 98 0-10-56-113-15-118-90-4-57 82-63 122-42 12 7 21 19 24 35" id="aW"/><path fill="#fff" d="M24-231v-30h32v30H24zM24 0v-190h32V0H24" id="aX"/><path fill="#fff" d="M177-190C167-65 218 103 67 71c-23-6-38-20-44-43l32-5c15 47 100 32 89-28v-30C133-14 115 1 83 1 29 1 15-40 15-95c0-56 16-97 71-98 29-1 48 16 59 35 1-10 0-23 2-32h30zM94-22c36 0 50-32 50-73 0-42-14-75-50-75-39 0-46 34-46 75s6 73 46 73" id="aY"/><g id="p"><use transform="matrix(0.050063688677604884,0,0,0.050063688677604884,0,0)" xlink:href="#aW"/><use transform="matrix(0.050063688677604884,0,0,0.050063688677604884,9.011463961968879,0)" xlink:href="#ah"/><use transform="matrix(0.050063688677604884,0,0,0.050063688677604884,14.017832829729368,0)" xlink:href="#Y"/><use transform="matrix(0.050063688677604884,0,0,0.050063688677604884,19.97541178236435,0)" xlink:href="#aX"/><use transform="matrix(0.050063688677604884,0,0,0.050063688677604884,23.930443187895136,0)" xlink:href="#af"/><use transform="matrix(0.050063688677604884,0,0,0.050063688677604884,33.943180923416115,0)" xlink:href="#aY"/></g><path fill="#fff" d="M140-251c81 0 123 46 123 126C263-53 228-8 163 1c7 30 30 48 69 40v23c-55 16-95-15-103-61C56-3 17-48 17-125c0-80 42-126 123-126zm0 227c63 0 89-41 89-101s-29-99-89-99c-61 0-89 39-89 99S79-25 140-24" id="aZ"/><g id="q"><use transform="matrix(0.050063688677604884,0,0,0.050063688677604884,0,0)" xlink:href="#aZ"/><use transform="matrix(0.050063688677604884,0,0,0.050063688677604884,14.017832829729368,0)" xlink:href="#ag"/><use transform="matrix(0.050063688677604884,0,0,0.050063688677604884,24.030570565250343,0)" xlink:href="#aU"/><use transform="matrix(0.050063688677604884,0,0,0.050063688677604884,34.04330830077132,0)" xlink:href="#Y"/><use transform="matrix(0.050063688677604884,0,0,0.050063688677604884,40.000887253406304,0)" xlink:href="#aV"/></g><path fill="#fff" d="M140-251c81 0 123 46 123 126C263-46 219 4 140 4 59 4 17-45 17-125s42-126 123-126zm0 227c63 0 89-41 89-101s-29-99-89-99c-61 0-89 39-89 99S79-25 140-24" id="ba"/><path fill="#fff" d="M115-194c53 0 69 39 70 98 0 66-23 100-70 100C84 3 66-7 56-30L54 0H23l1-261h32v101c10-23 28-34 59-34zm-8 174c40 0 45-34 45-75 0-40-5-75-45-74-42 0-51 32-51 76 0 43 10 73 51 73" id="bb"/><path fill="#fff" d="M24-231v-30h32v30H24zM-9 49c24 4 33-6 33-30v-209h32V24c2 40-23 58-65 49V49" id="bc"/><path fill="#fff" d="M96-169c-40 0-48 33-48 73s9 75 48 75c24 0 41-14 43-38l32 2c-6 37-31 61-74 61-59 0-76-41-82-99-10-93 101-131 147-64 4 7 5 14 7 22l-32 3c-4-21-16-35-41-35" id="bd"/><g id="r"><use transform="matrix(0.050063688677604884,0,0,0.050063688677604884,0,0)" xlink:href="#ba"/><use transform="matrix(0.050063688677604884,0,0,0.050063688677604884,14.017832829729368,0)" xlink:href="#bb"/><use transform="matrix(0.050063688677604884,0,0,0.050063688677604884,24.030570565250343,0)" xlink:href="#bc"/><use transform="matrix(0.050063688677604884,0,0,0.050063688677604884,27.98560197078113,0)" xlink:href="#aU"/><use transform="matrix(0.050063688677604884,0,0,0.050063688677604884,37.998339706302104,0)" xlink:href="#bd"/><use transform="matrix(0.050063688677604884,0,0,0.050063688677604884,47.00980366827098,0)" xlink:href="#ah"/></g><g id="s"><use transform="matrix(0.007543078093165914,0,0,0.007543078093165914,0,0)" xlink:href="#au"/><use transform="matrix(0.007543078093165914,0,0,0.007543078093165914,9.270442976500908,0)" xlink:href="#ak"/><use transform="matrix(0.007543078093165914,0,0,0.007543078093165914,18.540885953001816,0)" xlink:href="#am"/><use transform="matrix(0.007543078093165914,0,0,0.007543078093165914,27.81132892950272,0)" xlink:href="#an"/><use transform="matrix(0.007543078093165914,0,0,0.007543078093165914,37.08177190600363,0)" xlink:href="#ao"/><use transform="matrix(0.007543078093165914,0,0,0.007543078093165914,46.35221488250454,0)" xlink:href="#aj"/><use transform="matrix(0.007543078093165914,0,0,0.007543078093165914,55.62265785900545,0)" xlink:href="#ap"/><use transform="matrix(0.007543078093165914,0,0,0.007543078093165914,64.89310083550636,0)" xlink:href="#aq"/><use transform="matrix(0.007543078093165914,0,0,0.007543078093165914,74.16354381200726,0)" xlink:href="#ar"/><use transform="matrix(0.007543078093165914,0,0,0.007543078093165914,83.43398678850816,0)" xlink:href="#as"/><use transform="matrix(0.007543078093165914,0,0,0.007543078093165914,92.70442976500907,0)" xlink:href="#ao"/><use transform="matrix(0.007543078093165914,0,0,0.007543078093165914,101.97487274150997,0)" xlink:href="#at"/><use transform="matrix(0.007543078093165914,0,0,0.007543078093165914,111.24531571801087,0)" xlink:href="#au"/></g><path fill="#fff" d="M30 0v-248h33v221h125V0H30" id="be"/><g id="t"><use transform="matrix(0.050063688677604884,0,0,0.050063688677604884,0,0)" xlink:href="#X"/><use transform="matrix(0.050063688677604884,0,0,0.050063688677604884,14.017832829729368,0)" xlink:href="#Y"/><use transform="matrix(0.050063688677604884,0,0,0.050063688677604884,19.97541178236435,0)" xlink:href="#Z"/><use transform="matrix(0.050063688677604884,0,0,0.050063688677604884,29.988149517885326,0)" xlink:href="#aa"/><use transform="matrix(0.050063688677604884,0,0,0.050063688677604884,40.000887253406304,0)" xlink:href="#ab"/><use transform="matrix(0.050063688677604884,0,0,0.050063688677604884,50.01362498892728,0)" xlink:href="#aZ"/><use transform="matrix(0.050063688677604884,0,0,0.050063688677604884,64.03145781865665,0)" xlink:href="#be"/></g><path fill="#fff" d="M85-194c31 0 48 13 60 33l-1-100h32l1 261h-30c-2-10 0-23-3-31C134-8 116 4 85 4 32 4 16-35 15-94c0-66 23-100 70-100zm9 24c-40 0-46 34-46 75 0 40 6 74 45 74 42 0 51-32 51-76 0-42-9-74-50-73" id="bf"/><path fill="#fff" d="M100-194c62-1 85 37 85 99 1 63-27 99-86 99S16-35 15-95c0-66 28-99 85-99zM99-20c44 1 53-31 53-75 0-43-8-75-51-75s-53 32-53 75 10 74 51 75" id="bg"/><g id="u"><use transform="matrix(0.050063688677604884,0,0,0.050063688677604884,0,0)" xlink:href="#aU"/><use transform="matrix(0.050063688677604884,0,0,0.050063688677604884,10.012737735520977,0)" xlink:href="#af"/><use transform="matrix(0.050063688677604884,0,0,0.050063688677604884,20.025475471041954,0)" xlink:href="#bf"/><use transform="matrix(0.050063688677604884,0,0,0.050063688677604884,30.03821320656293,0)" xlink:href="#aa"/><use transform="matrix(0.050063688677604884,0,0,0.050063688677604884,40.05095094208391,0)" xlink:href="#bg"/><use transform="matrix(0.050063688677604884,0,0,0.050063688677604884,50.06368867760489,0)" xlink:href="#aX"/><use transform="matrix(0.050063688677604884,0,0,0.050063688677604884,54.01872008313568,0)" xlink:href="#af"/><use transform="matrix(0.050063688677604884,0,0,0.050063688677604884,64.03145781865665,0)" xlink:href="#ah"/></g><path d="M162 0v-1349h919v156H353v422h668v154H353v461h769V0H162" id="bh"/><path d="M745-142h380V0H143v-142h422v-798H246v-142h499v940zM545-1292v-192h200v192H545" id="bi"/><path d="M682 16c-209 0-323-80-324-285v-671H190v-142h170l58-282h120v282h432v142H538v652c2 114 60 155 182 155 106 0 209-16 297-34v137C921-4 806 16 682 16" id="bj"/><path d="M648-963c-190 6-283 138-283 336V0H185v-1484h181c-2 197 6 404-9 587h3c62-120 159-205 339-205 242 0 351 135 350 381V0H868v-695c1-168-57-273-220-268" id="bk"/><path d="M617-1102c355 0 481 238 477 599H322c5 222 84 388 301 388 144 0 244-59 284-166l158 45C1002-72 854 20 623 20c-342 0-490-220-490-568 0-346 151-554 484-554zm291 461c-18-192-90-328-289-328-194 0-287 128-295 328h584" id="bl"/><path d="M839-1102c70 0 148 7 206 17v167c-112-18-268-36-363 15-129 69-208 203-208 395V0H294c-10-367 32-789-52-1082h171c21 75 41 161 48 250h5c67-152 152-270 373-270" id="bm"/><g id="v"><use transform="matrix(0.007543078093165914,0,0,0.007543078093165914,0,0)" xlink:href="#bh"/><use transform="matrix(0.007543078093165914,0,0,0.007543078093165914,9.270442976500908,0)" xlink:href="#bi"/><use transform="matrix(0.007543078093165914,0,0,0.007543078093165914,18.540885953001816,0)" xlink:href="#bj"/><use transform="matrix(0.007543078093165914,0,0,0.007543078093165914,27.81132892950272,0)" xlink:href="#bk"/><use transform="matrix(0.007543078093165914,0,0,0.007543078093165914,37.08177190600363,0)" xlink:href="#bl"/><use transform="matrix(0.007543078093165914,0,0,0.007543078093165914,46.35221488250454,0)" xlink:href="#bm"/></g><path d="M140-251c81 0 123 46 123 126C263-46 219 4 140 4 59 4 17-45 17-125s42-126 123-126zm0 227c63 0 89-41 89-101s-29-99-89-99c-61 0-89 39-89 99S79-25 140-24" id="bn"/><path d="M25 0v-190h32v167h72v-167h31v167h72v-167h32V0H25" id="bo"/><path d="M56-190L54-37l88-153h34V0h-30l2-153L59 0H25v-190h31" id="bp"/><path d="M105-20c41 1 53-27 53-68 0-40-9-69-50-69s-54 27-54 69c0 40 12 68 51 68zM47-134c10-28 31-47 68-47 56 0 76 33 76 92 1 60-28 90-86 93C-9 9 1-201 72-238c29-15 73-21 110-26v28c-67 12-144 10-135 102" id="bq"/><path d="M75-87c-4 1-14 3-19 3V0H24v-190h32v83c26-2 31-21 43-41l26-42h33l-61 86L159 0h-35" id="br"/><path d="M141-36C126-15 110 5 73 4 37 3 15-17 15-53c-1-64 63-63 125-63 3-35-9-54-41-54-24 1-41 7-42 31l-33-3c5-37 33-52 76-52 45 0 72 20 72 64v82c-1 20 7 32 28 27v20c-31 9-61-2-59-35zM48-53c0 20 12 33 32 33 41-3 63-29 60-74-43 2-92-5-92 41" id="bs"/><g id="w"><use transform="matrix(0.050063688677604884,0,0,0.050063688677604884,0,0)" xlink:href="#bn"/><use transform="matrix(0.050063688677604884,0,0,0.050063688677604884,14.017832829729368,0)" xlink:href="#bo"/><use transform="matrix(0.050063688677604884,0,0,0.050063688677604884,28.436175168879576,0)" xlink:href="#bp"/><use transform="matrix(0.050063688677604884,0,0,0.050063688677604884,38.498976593078154,0)" xlink:href="#bq"/><use transform="matrix(0.050063688677604884,0,0,0.050063688677604884,48.81209646066476,0)" xlink:href="#br"/><use transform="matrix(0.050063688677604884,0,0,0.050063688677604884,57.072605092469566,0)" xlink:href="#bs"/></g><path d="M100-194c62-1 85 37 85 99 1 63-27 99-86 99S16-35 15-95c0-66 28-99 85-99zM99-20c44 1 53-31 53-75 0-43-8-75-51-75s-53 32-53 75 10 74 51 75" id="bt"/><path d="M6-190h153v23H98V0H67v-167H6v-23" id="bu"/><path d="M147-167H93C83-118 77-63 59-23h88v-144zM24-23c26-44 31-102 41-167h113v167h26v95h-29V0H32v72H4v-95h20" id="bv"/><path d="M100-194c63 0 86 42 84 106H49c0 40 14 67 53 68 26 1 43-12 49-29l28 8c-11 28-37 45-77 45C44 4 14-33 15-96c1-61 26-98 85-98zm52 81c6-60-76-77-97-28-3 7-6 17-6 28h103" id="bw"/><path d="M153 0v-167H87C74-108 81-27 38 0 29 5 12 6 2 1v-22c51 4 39-64 49-112 5-25 4-25 8-57h126V0h-32" id="bx"/><path d="M173-56C173 11 92 0 25 0v-190h32v80c58-2 117-2 116 54zm-34 0c0-39-44-31-82-32v66c39 0 82 6 82-34" id="by"/><path d="M57-190v80h85v-80h32V0h-32v-87H57V0H25v-190h32" id="bz"/><path d="M121-190v23H57V0H25v-190h96" id="bA"/><g id="x"><use transform="matrix(0.050063688677604884,0,0,0.050063688677604884,0,0)" xlink:href="#bt"/><use transform="matrix(0.050063688677604884,0,0,0.050063688677604884,9.612228226100138,0)" xlink:href="#bu"/><use transform="matrix(0.050063688677604884,0,0,0.050063688677604884,17.22190890509608,0)" xlink:href="#bv"/><use transform="matrix(0.050063688677604884,0,0,0.050063688677604884,27.735283527393104,0)" xlink:href="#bw"/><use transform="matrix(0.050063688677604884,0,0,0.050063688677604884,37.14725699878282,0)" xlink:href="#bx"/><use transform="matrix(0.050063688677604884,0,0,0.050063688677604884,47.660631621079844,0)" xlink:href="#by"/><use transform="matrix(0.050063688677604884,0,0,0.050063688677604884,57.022541403791955,0)" xlink:href="#bz"/><use transform="matrix(0.050063688677604884,0,0,0.050063688677604884,66.93515176195773,0)" xlink:href="#bt"/><use transform="matrix(0.050063688677604884,0,0,0.050063688677604884,76.9478894974787,0)" xlink:href="#bA"/><use transform="matrix(0.050063688677604884,0,0,0.050063688677604884,83.1057232048241,0)" xlink:href="#bt"/></g><path d="M170-190V0h-32v-167H57V0H25v-190h145" id="bB"/><path d="M20-138c-1-64 85-51 150-52V0h-32v-81H94L39 0H3l60-83c-28-5-43-24-43-55zm33 3c0 40 46 33 85 33v-66c-39 0-85-6-85 33" id="bC"/><g id="y"><use transform="matrix(0.050063688677604884,0,0,0.050063688677604884,0,0)" xlink:href="#bB"/><use transform="matrix(0.050063688677604884,0,0,0.050063688677604884,9.712355603455347,0)" xlink:href="#bt"/><use transform="matrix(0.050063688677604884,0,0,0.050063688677604884,19.324583829555486,0)" xlink:href="#bx"/><use transform="matrix(0.050063688677604884,0,0,0.050063688677604884,29.83795845185251,0)" xlink:href="#bC"/></g><path fill="#fff" d="M206-28h31V72h-32V0H34v72H3V-28h25c38-50 38-143 51-220h127v220zm-32 0v-192h-66C95-156 94-78 66-28h108" id="bD"/><path fill="#fff" d="M141-36C126-15 110 5 73 4 37 3 15-17 15-53c-1-64 63-63 125-63 3-35-9-54-41-54-24 1-41 7-42 31l-33-3c5-37 33-52 76-52 45 0 72 20 72 64v82c-1 20 7 32 28 27v20c-31 9-61-2-59-35zM48-53c0 20 12 33 32 33 41-3 63-29 60-74-43 2-92-5-92 41" id="bE"/><path fill="#fff" d="M57-190v80h85v-80h32V0h-32v-87H57V0H25v-190h32" id="bF"/><path fill="#fff" d="M170-56C169 10 92 0 25 0v-190h32v80c58-2 114-1 113 54zm-34 0c0-38-42-32-79-32v66c38 0 79 5 79-34zm66 56v-190h32V0h-32" id="bG"/><path fill="#fff" d="M100-194c63 0 86 42 84 106H49c0 40 14 67 53 68 26 1 43-12 49-29l28 8c-11 28-37 45-77 45C44 4 14-33 15-96c1-61 26-98 85-98zm52 81c6-60-76-77-97-28-3 7-6 17-6 28h103" id="bH"/><g id="z"><use transform="matrix(0.050063688677604884,0,0,0.050063688677604884,0,0)" xlink:href="#bD"/><use transform="matrix(0.050063688677604884,0,0,0.050063688677604884,12.165476348657986,0)" xlink:href="#bE"/><use transform="matrix(0.050063688677604884,0,0,0.050063688677604884,22.17821408417896,0)" xlink:href="#bF"/><use transform="matrix(0.050063688677604884,0,0,0.050063688677604884,32.090824442344726,0)" xlink:href="#bF"/><use transform="matrix(0.050063688677604884,0,0,0.050063688677604884,42.00343480051049,0)" xlink:href="#bG"/><use transform="matrix(0.050063688677604884,0,0,0.050063688677604884,54.91986647933255,0)" xlink:href="#bH"/></g><path fill="#fff" d="M56-190L54-37l88-153h34V0h-30l2-153L59 0H25v-190h31" id="bI"/><path fill="#fff" d="M152-53C154 19 21 22 9-41l28-8c5 36 84 42 81-4-1-29-28-34-58-35v-24c28 0 55-4 55-30 0-19-14-29-34-28-20 0-35 7-38 25l-28-3c4-33 30-46 66-46 37 0 66 15 66 50 0 27-20 41-44 44 27 5 48 17 49 47" id="bJ"/><g id="A"><use transform="matrix(0.050063688677604884,0,0,0.050063688677604884,0,0)" xlink:href="#bI"/><use transform="matrix(0.050063688677604884,0,0,0.050063688677604884,10.062801424198582,0)" xlink:href="#bJ"/></g><path fill="#fff" d="M100-194c62-1 85 37 85 99 1 63-27 99-86 99S16-35 15-95c0-66 28-99 85-99zM99-20c44 1 53-31 53-75 0-43-8-75-51-75s-53 32-53 75 10 74 51 75" id="bK"/><path fill="#fff" d="M6-190h153v23H98V0H67v-167H6v-23" id="bL"/><path fill="#fff" d="M176-55C176 11 93 0 25 0v-190c61 3 142-15 144 47 1 29-21 35-39 44 27 3 46 16 46 44zm-34 0c0-41-47-30-85-32v64c38-1 85 8 85-32zm-6-83c0-36-44-26-79-28v56c34-2 79 8 79-28" id="bM"/><g id="B"><use transform="matrix(0.050063688677604884,0,0,0.050063688677604884,0,0)" xlink:href="#bK"/><use transform="matrix(0.050063688677604884,0,0,0.050063688677604884,9.612228226100138,0)" xlink:href="#bL"/><use transform="matrix(0.050063688677604884,0,0,0.050063688677604884,17.822673169227336,0)" xlink:href="#bM"/><use transform="matrix(0.050063688677604884,0,0,0.050063688677604884,27.18458295193945,0)" xlink:href="#bH"/><use transform="matrix(0.050063688677604884,0,0,0.050063688677604884,36.59655642332917,0)" xlink:href="#bL"/><use transform="matrix(0.050063688677604884,0,0,0.050063688677604884,44.60674661174595,0)" xlink:href="#bE"/></g><g id="C"><use transform="matrix(0.007543078093165914,0,0,0.007543078093165914,0,0)" xlink:href="#aT"/><use transform="matrix(0.007543078093165914,0,0,0.007543078093165914,9.270442976500908,0)" xlink:href="#au"/><use transform="matrix(0.007543078093165914,0,0,0.007543078093165914,18.540885953001816,0)" xlink:href="#aj"/><use transform="matrix(0.007543078093165914,0,0,0.007543078093165914,27.81132892950272,0)" xlink:href="#aN"/><use transform="matrix(0.007543078093165914,0,0,0.007543078093165914,37.08177190600363,0)" xlink:href="#aO"/><use transform="matrix(0.007543078093165914,0,0,0.007543078093165914,46.35221488250454,0)" xlink:href="#aP"/></g><path fill="#fff" d="M233-177c-1 41-23 64-60 70L243 0h-38l-65-103H63V0H30v-248c88 3 205-21 203 71zM63-129c60-2 137 13 137-47 0-61-80-42-137-45v92" id="bN"/><g id="D"><use transform="matrix(0.050063688677604884,0,0,0.050063688677604884,0,0)" xlink:href="#bN"/><use transform="matrix(0.050063688677604884,0,0,0.050063688677604884,12.966495367499665,0)" xlink:href="#aU"/><use transform="matrix(0.050063688677604884,0,0,0.050063688677604884,22.97923310302064,0)" xlink:href="#Z"/><use transform="matrix(0.050063688677604884,0,0,0.050063688677604884,32.99197083854162,0)" xlink:href="#bd"/><use transform="matrix(0.050063688677604884,0,0,0.050063688677604884,42.0034348005105,0)" xlink:href="#ah"/></g><path fill="#fff" d="M210-169c-67 3-38 105-44 169h-31v-121c0-29-5-50-35-48C34-165 62-65 56 0H25l-1-190h30c1 10-1 24 2 32 10-44 99-50 107 0 11-21 27-35 58-36 85-2 47 119 55 194h-31v-121c0-29-5-49-35-48" id="bO"/><g id="E"><use transform="matrix(0.050063688677604884,0,0,0.050063688677604884,0,0)" xlink:href="#bd"/><use transform="matrix(0.050063688677604884,0,0,0.050063688677604884,9.011463961968879,0)" xlink:href="#bg"/><use transform="matrix(0.050063688677604884,0,0,0.050063688677604884,19.024201697489858,0)" xlink:href="#bO"/><use transform="matrix(0.050063688677604884,0,0,0.050063688677604884,33.99324461209372,0)" xlink:href="#aa"/><use transform="matrix(0.050063688677604884,0,0,0.050063688677604884,44.0059823476147,0)" xlink:href="#bg"/><use transform="matrix(0.050063688677604884,0,0,0.050063688677604884,54.01872008313568,0)" xlink:href="#af"/><use transform="matrix(0.050063688677604884,0,0,0.050063688677604884,64.03145781865665,0)" xlink:href="#aU"/><use transform="matrix(0.050063688677604884,0,0,0.050063688677604884,74.04419555417762,0)" xlink:href="#af"/><use transform="matrix(0.050063688677604884,0,0,0.050063688677604884,84.05693328969859,0)" xlink:href="#ah"/></g><path fill="#333" d="M63-220v92h138v28H63V0H30v-248h175v28H63" id="bP"/><path fill="#333" d="M100-194c62-1 85 37 85 99 1 63-27 99-86 99S16-35 15-95c0-66 28-99 85-99zM99-20c44 1 53-31 53-75 0-43-8-75-51-75s-53 32-53 75 10 74 51 75" id="bQ"/><path fill="#333" d="M114-163C36-179 61-72 57 0H25l-1-190h30c1 12-1 29 2 39 6-27 23-49 58-41v29" id="bR"/><path fill="#333" d="M210-169c-67 3-38 105-44 169h-31v-121c0-29-5-50-35-48C34-165 62-65 56 0H25l-1-190h30c1 10-1 24 2 32 10-44 99-50 107 0 11-21 27-35 58-36 85-2 47 119 55 194h-31v-121c0-29-5-49-35-48" id="bS"/><g id="F"><use transform="matrix(0.050063688677604884,0,0,0.050063688677604884,0,0)" xlink:href="#bP"/><use transform="matrix(0.050063688677604884,0,0,0.050063688677604884,10.96394782039547,0)" xlink:href="#bQ"/><use transform="matrix(0.050063688677604884,0,0,0.050063688677604884,20.976685555916447,0)" xlink:href="#bR"/><use transform="matrix(0.050063688677604884,0,0,0.050063688677604884,26.93426450855143,0)" xlink:href="#bS"/></g><path fill="#333" d="M185-189c-5-48-123-54-124 2 14 75 158 14 163 119 3 78-121 87-175 55-17-10-28-26-33-46l33-7c5 56 141 63 141-1 0-78-155-14-162-118-5-82 145-84 179-34 5 7 8 16 11 25" id="bT"/><path fill="#333" d="M59-47c-2 24 18 29 38 22v24C64 9 27 4 27-40v-127H5v-23h24l9-43h21v43h35v23H59v120" id="bU"/><path fill="#333" d="M141-36C126-15 110 5 73 4 37 3 15-17 15-53c-1-64 63-63 125-63 3-35-9-54-41-54-24 1-41 7-42 31l-33-3c5-37 33-52 76-52 45 0 72 20 72 64v82c-1 20 7 32 28 27v20c-31 9-61-2-59-35zM48-53c0 20 12 33 32 33 41-3 63-29 60-74-43 2-92-5-92 41" id="bV"/><path fill="#333" d="M100-194c63 0 86 42 84 106H49c0 40 14 67 53 68 26 1 43-12 49-29l28 8c-11 28-37 45-77 45C44 4 14-33 15-96c1-61 26-98 85-98zm52 81c6-60-76-77-97-28-3 7-6 17-6 28h103" id="bW"/><g id="G"><use transform="matrix(0.050063688677604884,0,0,0.050063688677604884,0,0)" xlink:href="#bT"/><use transform="matrix(0.050063688677604884,0,0,0.050063688677604884,12.015285282625172,0)" xlink:href="#bU"/><use transform="matrix(0.050063688677604884,0,0,0.050063688677604884,17.02165415038566,0)" xlink:href="#bV"/><use transform="matrix(0.050063688677604884,0,0,0.050063688677604884,27.034391885906636,0)" xlink:href="#bU"/><use transform="matrix(0.050063688677604884,0,0,0.050063688677604884,32.04076075366712,0)" xlink:href="#bW"/></g><path d="M152-53C154 19 21 22 9-41l28-8c5 36 84 42 81-4-1-29-28-34-58-35v-24c28 0 55-4 55-30 0-19-14-29-34-28-20 0-35 7-38 25l-28-3c4-33 30-46 66-46 37 0 66 15 66 50 0 27-20 41-44 44 27 5 48 17 49 47" id="bX"/><g id="H"><use transform="matrix(0.050063688677604884,0,0,0.050063688677604884,0,0)" xlink:href="#bp"/><use transform="matrix(0.050063688677604884,0,0,0.050063688677604884,10.062801424198582,0)" xlink:href="#bX"/></g><path d="M176-55C176 11 93 0 25 0v-190c61 3 142-15 144 47 1 29-21 35-39 44 27 3 46 16 46 44zm-34 0c0-41-47-30-85-32v64c38-1 85 8 85-32zm-6-83c0-36-44-26-79-28v56c34-2 79 8 79-28" id="bY"/><g id="I"><use transform="matrix(0.050063688677604884,0,0,0.050063688677604884,0,0)" xlink:href="#bt"/><use transform="matrix(0.050063688677604884,0,0,0.050063688677604884,9.612228226100138,0)" xlink:href="#bu"/><use transform="matrix(0.050063688677604884,0,0,0.050063688677604884,17.822673169227336,0)" xlink:href="#bY"/><use transform="matrix(0.050063688677604884,0,0,0.050063688677604884,27.18458295193945,0)" xlink:href="#bw"/><use transform="matrix(0.050063688677604884,0,0,0.050063688677604884,36.59655642332917,0)" xlink:href="#bu"/><use transform="matrix(0.050063688677604884,0,0,0.050063688677604884,44.60674661174595,0)" xlink:href="#bs"/></g></defs></g></svg>